<svg xmlns="http://www.w3.org/2000/svg" viewBox="0 0 1440 1440">
    <path
    fill="#0099ff"
    fill-opacity="1"
    d="M0,64L15,96C30,128,60,192,90,192C120,192,150,128,180,106.7C210,85,240,107,270,144C300,181,330,235,360,229.3C390,224,420,160,450,133.3C480,107,510,117,540,122.7C570,128,600,128,630,149.3C660,171,690,213,720,245.3C750,277,780,299,810,304C840,309,870,299,900,256C930,213,960,139,990,117.3C1020,96,1050,128,1080,122.7C1110,117,1140,75,1170,48C1200,21,1230,11,1260,42.7C1290,75,1320,149,1350,176C1380,203,1410,181,1425,170.7L1440,160L1440,320L1425,320C1410,320,1380,320,1350,320C1320,320,1290,320,1260,320C1230,320,1200,320,1170,320C1140,320,1110,320,1080,320C1050,320,1020,320,990,320C960,320,930,320,900,320C870,320,840,320,810,320C780,320,750,320,720,320C690,320,660,320,630,320C600,320,570,320,540,320C510,320,480,320,450,320C420,320,390,320,360,320C330,320,300,320,270,320C240,320,210,320,180,320C150,320,120,320,90,320C60,320,30,320,15,320L0,320Z"
    transform="rotate(90, 0, 0)"
    >
    </path>
</svg>
